# xmcd
#
# Track frame offsets:
#       150
#       12478
#       22734
#       47641
#       55616
#       71060
#       84275
#       96573
#       111451
#       122801
#       136176
#       149067
#       158865
#       173441
#       183565
#       194038
#       204331
#       220760
#       235599
#       245441
#
# Disc length: 3459 seconds
#
# Revision: 0
# Processed by: cddbd v1.4PL0 Copyright (c) Steve Scherf et al.
# Submitted via: WhereIsIt 3.26
#
DISCID=1c0d8114
DTITLE=Various Country - That's Country CD-8
DYEAR=1900
DGENRE=
TTITLE0=hank williams - cold cold heart
TTITLE1=patsy cline - too many secrets
TTITLE2=dottie west - an american trilogy
TTITLE3=tennessee - hand me down my walking cane
TTITLE4=george jones - he stopped loving her today
TTITLE5=roy accuf - tennessee waltz
TTITLE6=johnny paycheck - she thinks I still care
TTITLE7=tina turner - good hearted woman
TTITLE8=bill monroe - bluegrass breakdown
TTITLE9=porter wagoner - love with feeling
TTITLE10=charly rich - the most beautiful girl
TTITLE11=conway twitty - where I stand
TTITLE12=terry gibbs - free and easy
TTITLE13=johnny cash - ballad of a teenage queen
TTITLE14=tammy wynette - womanhood
TTITLE15=waylon jennings - white lightnin'
TTITLE16=hoyt axton - nashville
TTITLE17=tammy wynette - crying in the rain
TTITLE18=bill monroe - blue moon of kentucky
TTITLE19=conway twitty - fifteen years ago
EXTD=
EXTT0=
EXTT1=
EXTT2=
EXTT3=
EXTT4=
EXTT5=
EXTT6=
EXTT7=
EXTT8=
EXTT9=
EXTT10=
EXTT11=
EXTT12=
EXTT13=
EXTT14=
EXTT15=
EXTT16=
EXTT17=
EXTT18=
EXTT19=
PLAYORDER=
